# xmcd CD database file
#
# Track frame offsets:
#	150
#	20648
#	41997
#	60726
#	91646
#	110327
#	125970
#	161530
#	180122
#	203047
#	222152
#
# Disc length: 3138 seconds
#
# Revision: 1
# Processed by: cddbd v1.5.2PL0 Copyright (c) Steve Scherf et al.
# Submitted via: CDex 1.70beta2
#
DISCID=930c400b
DTITLE=Chet Baker - Chet Baker Plays For Lovers
DYEAR=2006
DGENRE=Jazz
TTITLE0=You'd Be So Nice To Come Home To
TTITLE1=Stairway To The Stars
TTITLE2=How Long Has This Been Going On?
TTITLE3=Alone Together
TTITLE4=Moonlight In Vermont
TTITLE5=My Heart Stood Still
TTITLE6=Lonely Star
TTITLE7=You And The Night And The Music
TTITLE8=I'm Old Fashioned
TTITLE9=I've Grown Accustomed To Her Face
TTITLE10=My Funny Valentine
EXTD=YEAR: 2006
EXTT0=
EXTT1=
EXTT2=
EXTT3=
EXTT4=
EXTT5=
EXTT6=
EXTT7=
EXTT8=
EXTT9=
EXTT10=
PLAYORDER=
